<?xml version="1.0" standalone="no"?>
<!DOCTYPE svg PUBLIC "-//W3C//DTD SVG 20010904//EN"
 "http://www.w3.org/TR/2001/REC-SVG-20010904/DTD/svg10.dtd">
<svg version="1.0" xmlns="http://www.w3.org/2000/svg"
 width="1600.000000pt" height="1600.000000pt" viewBox="0 0 1600.000000 1600.000000"
 preserveAspectRatio="xMidYMid meet">
<metadata>
Created by potrace 1.11, written by Peter Selinger 2001-2013
</metadata>
<g transform="translate(0.000000,1600.000000) scale(0.100000,-0.100000)"
fill="#000000" stroke="none">
<path d="M620 14490 c-179 -31 -378 -158 -480 -306 -29 -41 -90 -156 -94 -177
-2 -7 -6 -19 -10 -27 -37 -85 -36 67 -33 -5505 1 -2942 5 -5359 9 -5370 3 -11
11 -40 18 -64 74 -275 347 -507 632 -536 18 -2 2131 -4 4695 -4 l4661 -1 23
-37 c24 -40 148 -214 159 -223 3 -3 34 -40 69 -83 68 -84 240 -261 336 -346
85 -75 301 -241 314 -241 6 0 11 -3 11 -7 0 -5 12 -15 28 -24 15 -9 74 -45
132 -80 262 -160 569 -286 895 -368 44 -11 95 -22 113 -25 17 -4 47 -8 65 -11
17 -3 39 -8 47 -10 24 -6 117 -19 215 -30 131 -14 454 -20 535 -11 19 3 70 7
113 11 43 4 90 8 105 11 15 2 41 6 57 9 17 2 48 7 70 11 60 9 252 52 315 70
97 28 304 98 330 111 14 7 28 13 32 13 21 0 268 120 388 189 250 143 488 325
685 525 133 135 295 324 295 344 0 6 4 12 9 14 9 3 131 173 131 182 0 4 16 29
35 56 19 27 35 52 35 54 0 2 15 31 34 64 19 33 32 63 28 66 -3 3 -1 6 5 6 10
0 80 142 136 280 71 172 152 445 182 610 19 100 33 197 42 285 10 92 10 590 0
680 -13 117 -55 344 -82 450 -14 55 -28 107 -30 115 -10 40 -86 255 -119 335
-73 176 -231 468 -320 590 -138 189 -150 204 -256 324 -267 302 -582 544 -960
739 -80 41 -147 74 -150 74 -3 0 -20 6 -37 13 l-33 14 -1 3273 c0 1800 -2
3287 -4 3303 -14 111 -29 162 -72 251 -103 212 -284 353 -523 409 -57 13 -800
14 -6400 14 -3484 -1 -6355 -5 -6380 -9z"/>
</g>
</svg>
